<svg width="20" height="20" viewBox="0 0 20 20" fill="none" xmlns="http://www.w3.org/2000/svg">
<path d="M20 10C20 4.47583 15.5242 0 10 0C4.47583 0 0 4.47583 0 10C0 15.5242 4.47583 20 10 20C15.5242 20 20 15.5242 20 10ZM9.78333 15.4242L6.06583 5.7825C5.90417 5.335 6.175 4.94417 6.85167 5.08917L6.85083 5.08833L14.585 6.73C15.1333 6.85167 15.2667 7.1775 15.0083 7.63333L13.1658 10.1333L14.3275 11.3392C14.4608 11.4725 14.5733 11.585 14.5733 11.8433L12.0292 11.6658L7.84333 7.0325C7.66583 6.83083 7.56583 7.0775 7.7425 7.34333L11.3475 13.0692L10.5775 15.5375C10.4075 16.0733 10.0417 16.085 9.78333 15.4242Z" fill="white"/>
</svg>
