<?xml version="1.0" encoding="UTF-8" standalone="no" ?>
<!DOCTYPE svg PUBLIC "-//W3C//DTD SVG 1.1//EN" "http://www.w3.org/Graphics/SVG/1.1/DTD/svg11.dtd">
<svg xmlns="http://www.w3.org/2000/svg" xmlns:xlink="http://www.w3.org/1999/xlink" version="1.1" width="400" height="400" viewBox="0 0 400 400" xml:space="preserve">
<desc>Created with Fabric.js 3.6.2</desc>
<defs>
</defs>
<g transform="matrix(3.33 0 0 3.33 200 200)" id="mail"  >
<path style="stroke: none; stroke-width: 1; stroke-dasharray: none; stroke-linecap: butt; stroke-dashoffset: 0; stroke-linejoin: miter; stroke-miterlimit: 4; fill: rgb(238,170,46); fill-rule: evenodd; opacity: 1;"  transform=" translate(-30, -30)" d="M 30 60 C 46.5685433 60 60 46.5685433 60 30 C 60 13.4314567 46.5685433 0 30 0 C 13.4314567 0 0 13.4314567 0 30 C 0 46.5685433 13.4314567 60 30 60 Z" stroke-linecap="round" />
</g>
<g transform="matrix(3.33 0 0 3.33 200 201.92)" id="mail"  >
<path style="stroke: none; stroke-width: 1; stroke-dasharray: none; stroke-linecap: butt; stroke-dashoffset: 0; stroke-linejoin: miter; stroke-miterlimit: 4; fill: rgb(255,255,255); fill-rule: evenodd; opacity: 1;"  transform=" translate(-30, -30.58)" d="M 30 33.4615385 L 47.3076923 18.4615385 L 12.6923077 18.4615385 L 30 33.4615385 Z M 25.3251765 31.8010536 L 30 35.6382399 L 34.6015813 31.8010536 L 47.3076923 42.6923077 L 12.6923077 42.6923077 L 25.3251765 31.8010536 Z M 11.5384615 41.5384615 L 11.5384615 19.6153846 L 24.2307692 30.5769231 L 11.5384615 41.5384615 Z M 48.4615385 41.5384615 L 48.4615385 19.6153846 L 35.7692308 30.5769231 L 48.4615385 41.5384615 Z" stroke-linecap="round" />
</g>
</svg>