<?xml version="1.0" encoding="UTF-8" standalone="no" ?>
<!DOCTYPE svg PUBLIC "-//W3C//DTD SVG 1.1//EN" "http://www.w3.org/Graphics/SVG/1.1/DTD/svg11.dtd">
<svg xmlns="http://www.w3.org/2000/svg" xmlns:xlink="http://www.w3.org/1999/xlink" version="1.1" width="400" height="400" viewBox="0 0 400 400" xml:space="preserve">
<desc>Created with Fabric.js 3.6.2</desc>
<defs>
</defs>
<g transform="matrix(6.25 0 0 6.25 200 200)" id="Frame"  >
<rect style="stroke: none; stroke-width: 1; stroke-dasharray: none; stroke-linecap: butt; stroke-dashoffset: 0; stroke-linejoin: miter; stroke-miterlimit: 4; fill: none; fill-rule: nonzero; opacity: 1;"  x="-16" y="-16" rx="0" ry="0" width="32" height="32" />
</g>
<g transform="matrix(6.25 0 0 6.25 200 200)" id="Telegram-2"  >
<path style="stroke: none; stroke-width: 1; stroke-dasharray: none; stroke-linecap: butt; stroke-dashoffset: 0; stroke-linejoin: miter; stroke-miterlimit: 4; fill: rgb(238,170,46); fill-rule: nonzero; opacity: 1;"  transform=" translate(-16, -16)" d="M 16 2 A 14 14 0 1 0 30 16 A 14 14 0 0 0 16 2 Z m 8.50867 7.40686 L 18.04 26.39728 a 0.84081 0.84081 0 0 1 -1.31592 0.41412 L 13.613 22.46271 l -1.3194 1.25946 a 0.93462 0.93462 0 0 1 -0.746 0.36505 l 0.26989 -3.76178 l 0.1637 -0.14386 l -0.005 -0.0069 l 8.79711 -8.48761 c 0.23816 -0.21429 0 -0.45239 -0.2619 -0.2619 L 10.4881 19.42474 l -4.2995 -3.1488 a 0.84084 0.84084 0 0 1 0.41406 -1.316 L 23.6 8.49817 A 0.68143 0.68143 0 0 1 24.50867 9.40686 Z" stroke-linecap="round" />
</g>
</svg>